<mxfile host="app.diagrams.net" modified="2024-05-15T08:59:33.090Z" agent="Mozilla/5.0 (X11; Ubuntu; Linux x86_64; rv:125.0) Gecko/20100101 Firefox/125.0" etag="Vow0PV_cC-5dBz3U1BTL" version="24.4.0" type="device">
  <diagram name="Page-1" id="VKh9SRHuRIkTuClkH-0g">
    <mxGraphModel dx="2124" dy="1751" grid="1" gridSize="10" guides="1" tooltips="1" connect="1" arrows="1" fold="1" page="1" pageScale="1" pageWidth="850" pageHeight="1100" math="0" shadow="0">
      <root>
        <mxCell id="0" />
        <mxCell id="1" parent="0" />
        <mxCell id="pc8KOOXtH5tuLUbK0_eT-1" value="Initial" style="ellipse;whiteSpace=wrap;html=1;" vertex="1" parent="1">
          <mxGeometry x="560" y="-300" width="120" height="80" as="geometry" />
        </mxCell>
        <mxCell id="pc8KOOXtH5tuLUbK0_eT-2" value="Encrypted and Signed File" style="ellipse;whiteSpace=wrap;html=1;" vertex="1" parent="1">
          <mxGeometry x="560" y="230" width="120" height="80" as="geometry" />
        </mxCell>
        <mxCell id="pc8KOOXtH5tuLUbK0_eT-3" value="Key Generated" style="ellipse;whiteSpace=wrap;html=1;" vertex="1" parent="1">
          <mxGeometry x="560" y="-170" width="120" height="80" as="geometry" />
        </mxCell>
        <mxCell id="pc8KOOXtH5tuLUbK0_eT-4" value="Transmitted File" style="ellipse;whiteSpace=wrap;html=1;" vertex="1" parent="1">
          <mxGeometry x="560" y="350" width="120" height="80" as="geometry" />
        </mxCell>
        <mxCell id="pc8KOOXtH5tuLUbK0_eT-5" value="Authenticated" style="ellipse;whiteSpace=wrap;html=1;" vertex="1" parent="1">
          <mxGeometry x="560" y="90" width="120" height="80" as="geometry" />
        </mxCell>
        <mxCell id="pc8KOOXtH5tuLUbK0_eT-7" value="Key Exchanged" style="ellipse;whiteSpace=wrap;html=1;" vertex="1" parent="1">
          <mxGeometry x="560" y="-40" width="120" height="80" as="geometry" />
        </mxCell>
        <mxCell id="pc8KOOXtH5tuLUbK0_eT-8" value="Verified and Decrypted File" style="ellipse;whiteSpace=wrap;html=1;" vertex="1" parent="1">
          <mxGeometry x="560" y="470" width="120" height="80" as="geometry" />
        </mxCell>
        <mxCell id="pc8KOOXtH5tuLUbK0_eT-9" value="Completed" style="ellipse;whiteSpace=wrap;html=1;" vertex="1" parent="1">
          <mxGeometry x="560" y="600" width="120" height="80" as="geometry" />
        </mxCell>
        <mxCell id="pc8KOOXtH5tuLUbK0_eT-10" value="" style="endArrow=classic;html=1;rounded=0;exitX=0.5;exitY=1;exitDx=0;exitDy=0;entryX=0.5;entryY=0;entryDx=0;entryDy=0;" edge="1" parent="1" source="pc8KOOXtH5tuLUbK0_eT-1" target="pc8KOOXtH5tuLUbK0_eT-3">
          <mxGeometry width="50" height="50" relative="1" as="geometry">
            <mxPoint x="720" y="10" as="sourcePoint" />
            <mxPoint x="770" y="-40" as="targetPoint" />
          </mxGeometry>
        </mxCell>
        <mxCell id="pc8KOOXtH5tuLUbK0_eT-11" value="" style="endArrow=classic;html=1;rounded=0;entryX=0.5;entryY=0;entryDx=0;entryDy=0;exitX=0.5;exitY=1;exitDx=0;exitDy=0;" edge="1" parent="1" source="pc8KOOXtH5tuLUbK0_eT-3" target="pc8KOOXtH5tuLUbK0_eT-7">
          <mxGeometry width="50" height="50" relative="1" as="geometry">
            <mxPoint x="720" y="10" as="sourcePoint" />
            <mxPoint x="770" y="-40" as="targetPoint" />
          </mxGeometry>
        </mxCell>
        <mxCell id="pc8KOOXtH5tuLUbK0_eT-12" value="" style="endArrow=classic;html=1;rounded=0;entryX=0.5;entryY=0;entryDx=0;entryDy=0;exitX=0.5;exitY=1;exitDx=0;exitDy=0;" edge="1" parent="1" source="pc8KOOXtH5tuLUbK0_eT-7" target="pc8KOOXtH5tuLUbK0_eT-5">
          <mxGeometry width="50" height="50" relative="1" as="geometry">
            <mxPoint x="720" y="10" as="sourcePoint" />
            <mxPoint x="770" y="-40" as="targetPoint" />
          </mxGeometry>
        </mxCell>
        <mxCell id="pc8KOOXtH5tuLUbK0_eT-13" value="" style="endArrow=classic;html=1;rounded=0;entryX=0.5;entryY=0;entryDx=0;entryDy=0;exitX=0.5;exitY=1;exitDx=0;exitDy=0;" edge="1" parent="1" source="pc8KOOXtH5tuLUbK0_eT-5" target="pc8KOOXtH5tuLUbK0_eT-2">
          <mxGeometry width="50" height="50" relative="1" as="geometry">
            <mxPoint x="720" y="10" as="sourcePoint" />
            <mxPoint x="770" y="-40" as="targetPoint" />
          </mxGeometry>
        </mxCell>
        <mxCell id="pc8KOOXtH5tuLUbK0_eT-14" value="" style="endArrow=classic;html=1;rounded=0;entryX=0.5;entryY=0;entryDx=0;entryDy=0;exitX=0.5;exitY=1;exitDx=0;exitDy=0;" edge="1" parent="1" source="pc8KOOXtH5tuLUbK0_eT-2" target="pc8KOOXtH5tuLUbK0_eT-4">
          <mxGeometry width="50" height="50" relative="1" as="geometry">
            <mxPoint x="720" y="-300" as="sourcePoint" />
            <mxPoint x="770" y="-350" as="targetPoint" />
          </mxGeometry>
        </mxCell>
        <mxCell id="pc8KOOXtH5tuLUbK0_eT-15" value="" style="endArrow=classic;html=1;rounded=0;exitX=0.5;exitY=1;exitDx=0;exitDy=0;entryX=0.5;entryY=0;entryDx=0;entryDy=0;" edge="1" parent="1" source="pc8KOOXtH5tuLUbK0_eT-4" target="pc8KOOXtH5tuLUbK0_eT-8">
          <mxGeometry width="50" height="50" relative="1" as="geometry">
            <mxPoint x="720" y="-300" as="sourcePoint" />
            <mxPoint x="770" y="-350" as="targetPoint" />
          </mxGeometry>
        </mxCell>
        <mxCell id="pc8KOOXtH5tuLUbK0_eT-16" value="" style="endArrow=classic;html=1;rounded=0;entryX=0.5;entryY=0;entryDx=0;entryDy=0;exitX=0.5;exitY=1;exitDx=0;exitDy=0;" edge="1" parent="1" source="pc8KOOXtH5tuLUbK0_eT-8" target="pc8KOOXtH5tuLUbK0_eT-9">
          <mxGeometry width="50" height="50" relative="1" as="geometry">
            <mxPoint x="720" y="-300" as="sourcePoint" />
            <mxPoint x="770" y="-350" as="targetPoint" />
          </mxGeometry>
        </mxCell>
        <mxCell id="pc8KOOXtH5tuLUbK0_eT-17" value="" style="endArrow=classic;html=1;rounded=0;entryX=0.5;entryY=0;entryDx=0;entryDy=0;" edge="1" parent="1">
          <mxGeometry relative="1" as="geometry">
            <mxPoint x="621.25" y="-410" as="sourcePoint" />
            <mxPoint x="618.75" y="-300" as="targetPoint" />
          </mxGeometry>
        </mxCell>
        <mxCell id="pc8KOOXtH5tuLUbK0_eT-18" value="Start" style="edgeLabel;resizable=0;html=1;;align=center;verticalAlign=middle;" connectable="0" vertex="1" parent="pc8KOOXtH5tuLUbK0_eT-17">
          <mxGeometry relative="1" as="geometry" />
        </mxCell>
        <mxCell id="pc8KOOXtH5tuLUbK0_eT-21" value="&lt;h3 style=&quot;font-size: 16px;&quot;&gt;State Diagram&lt;/h3&gt;&lt;p style=&quot;font-size: 16px;&quot;&gt;The State Diagram represents the behavior and states of the file during the secure transmission process.&lt;/p&gt;&lt;p style=&quot;font-size: 16px;&quot;&gt;&lt;strong style=&quot;font-size: 16px;&quot;&gt;States&lt;/strong&gt;:&lt;/p&gt;&lt;ul style=&quot;font-size: 16px;&quot;&gt;&lt;li style=&quot;font-size: 16px;&quot;&gt;Initial&lt;/li&gt;&lt;li style=&quot;font-size: 16px;&quot;&gt;Key Generated&lt;/li&gt;&lt;li style=&quot;font-size: 16px;&quot;&gt;Key Exchanged&lt;/li&gt;&lt;li style=&quot;font-size: 16px;&quot;&gt;Authenticated&lt;/li&gt;&lt;li style=&quot;font-size: 16px;&quot;&gt;Encrypted&lt;/li&gt;&lt;li style=&quot;font-size: 16px;&quot;&gt;Signed&lt;/li&gt;&lt;li style=&quot;font-size: 16px;&quot;&gt;Transmitted&lt;/li&gt;&lt;li style=&quot;font-size: 16px;&quot;&gt;Verified&lt;/li&gt;&lt;li style=&quot;font-size: 16px;&quot;&gt;Decrypted&lt;/li&gt;&lt;li style=&quot;font-size: 16px;&quot;&gt;Completed&lt;/li&gt;&lt;/ul&gt;" style="text;html=1;whiteSpace=wrap;overflow=hidden;rounded=0;fontStyle=1;fontSize=16;" vertex="1" parent="1">
          <mxGeometry x="-100" y="-80" width="520" height="490" as="geometry" />
        </mxCell>
      </root>
    </mxGraphModel>
  </diagram>
</mxfile>
